<?xml version="1.0" encoding="utf-8"?>
<!-- Generator: Adobe Illustrator 22.0.0, SVG Export Plug-In . SVG Version: 6.00 Build 0)  -->
<svg version="1.1" id="Layer_1" xmlns="http://www.w3.org/2000/svg" xmlns:xlink="http://www.w3.org/1999/xlink" x="0px" y="0px"
	 viewBox="0 0 841.9 1190.6" style="enable-background:new 0 0 841.9 1190.6;" xml:space="preserve">
<style type="text/css">
	.st0{fill:url(#SVGID_1_);}
</style>
<g>
	<linearGradient id="SVGID_1_" gradientUnits="userSpaceOnUse" x1="209.3141" y1="342.4817" x2="622.1592" y2="755.3268">
		<stop  offset="0" style="stop-color:#4351A2"/>
		<stop  offset="1" style="stop-color:#DE0F80"/>
	</linearGradient>
	<path class="st0" d="M378.7,585.6l-16.4,33.3c-25.4-14.7-50.9-20.8-68.6-20.8c-23.1,0-38.2,8.3-38.2,23.4
		c0,49,126.5,22.7,126.2,103.4c0,40-36.8,64.7-88.4,64.7c-36.8,0-71.6-14.4-95.7-35.5l17.1-32.7c24.1,21.1,54.2,32.7,79.3,32.7
		c27.4,0,43.8-9.9,43.8-27.2c0-50-126.5-22.1-126.5-101.8c0-38.4,34.5-62.5,85.3-62.5C327.2,562.6,357,571.8,378.7,585.6z
		 M651,387.8c-1.5-7.4-3.8-14.7-6.7-21.7c-2.9-6.8-6.5-13.4-10.6-19.6c-4.1-6.1-8.9-11.9-14.1-17.1c-5.2-5.2-11-10-17.1-14.1
		c-6.2-4.2-12.8-7.8-19.6-10.6c-7-2.9-14.3-5.2-21.7-6.7c-7.6-1.6-15.4-2.3-23.3-2.3s-15.7,0.8-23.3,2.3c-7.4,1.5-14.7,3.8-21.7,6.7
		c-6.8,2.9-13.4,6.5-19.6,10.6c-6.1,4.1-11.9,8.9-17.1,14.1c-5.2,5.2-10,11-14.1,17.1c-4.2,6.2-7.8,12.8-10.6,19.6
		c-2.9,7-5.2,14.3-6.7,21.7c-1.6,7.6-2.3,15.4-2.3,23.3c0,7.8,0.8,15.7,2.3,23.3c1.5,7.4,3.8,14.7,6.7,21.7
		c2.9,6.8,6.5,13.4,10.6,19.6c4.1,6.1,8.9,11.9,14.1,17.1c5.2,5.2,11,10,17.1,14.1c6.2,4.2,12.8,7.8,19.6,10.6
		c7,2.9,14.3,5.2,21.7,6.7c7.6,1.6,15.4,2.3,23.3,2.3s15.7-0.8,23.3-2.3c7.4-1.5,14.7-3.8,21.7-6.7c6.8-2.9,13.4-6.5,19.6-10.6
		c6.1-4.1,11.9-8.9,17.1-14.1c5.2-5.2,10-11,14.1-17.1c4.2-6.2,7.8-12.8,10.6-19.6c2.9-7,5.2-14.3,6.7-21.7
		c1.6-7.6,2.3-15.4,2.3-23.3C653.3,403.2,652.5,395.4,651,387.8z M537.9,487.3c-42,0-76.2-34.2-76.2-76.2s34.2-76.2,76.2-76.2
		s76.2,34.2,76.2,76.2S579.9,487.3,537.9,487.3z M599.6,721c-14.3,19.7-37.4,31.5-61.7,31.5c-42,0-76.2-34.2-76.2-76.2
		c0-42,34.2-76.2,76.2-76.2c24.9,0,48.3,12.2,62.6,32.7l1.4,2l32.2-22.4l-1.4-2c-5.2-7.5-11.3-14.3-18.1-20.4
		c-6.8-6.1-14.4-11.3-22.4-15.6c-8.2-4.4-16.9-7.7-25.9-10c-9.2-2.3-18.8-3.5-28.4-3.5c-7.8,0-15.7,0.8-23.3,2.3
		c-7.4,1.5-14.7,3.8-21.7,6.7c-6.8,2.9-13.4,6.5-19.6,10.6c-6.1,4.1-11.9,8.9-17.1,14.1c-5.2,5.2-10,11-14.1,17.1
		c-4.2,6.2-7.8,12.8-10.6,19.6c-2.9,7-5.2,14.3-6.7,21.7c-1.6,7.6-2.3,15.4-2.3,23.3c0,7.8,0.8,15.7,2.3,23.3
		c1.5,7.4,3.8,14.7,6.7,21.7c2.9,6.8,6.5,13.4,10.6,19.6c4.1,6.1,8.9,11.9,14.1,17.1c5.2,5.2,11,10,17.1,14.1
		c6.2,4.2,12.8,7.8,19.6,10.6c7,2.9,14.3,5.2,21.7,6.7c7.6,1.6,15.4,2.3,23.3,2.3c9.4,0,18.8-1.1,27.9-3.4
		c8.8-2.2,17.4-5.4,25.4-9.6c7.9-4.1,15.4-9.2,22.1-15c6.7-5.8,12.8-12.4,18.1-19.6l1.4-1.9l-31.8-23L599.6,721z M365.7,455.8
		c-14.3,19.7-37.4,31.5-61.7,31.5c-42,0-76.2-34.2-76.2-76.2s34.2-76.2,76.2-76.2c24.9,0,48.3,12.2,62.6,32.7l1.4,2l32.2-22.4
		l-1.4-2c-5.2-7.5-11.3-14.3-18.1-20.4c-6.8-6.1-14.4-11.3-22.4-15.6c-8.2-4.4-16.9-7.7-25.9-10c-9.2-2.3-18.8-3.5-28.4-3.5
		c-7.8,0-15.7,0.8-23.3,2.3c-7.4,1.5-14.7,3.8-21.7,6.7c-6.8,2.9-13.4,6.5-19.6,10.6c-6.1,4.1-11.9,8.9-17.1,14.1
		c-5.2,5.2-10,11-14.1,17.1c-4.2,6.2-7.8,12.8-10.6,19.6c-2.9,7-5.2,14.3-6.7,21.7c-1.6,7.6-2.3,15.4-2.3,23.3
		c0,7.8,0.8,15.7,2.3,23.3c1.5,7.4,3.8,14.7,6.7,21.7c2.9,6.8,6.5,13.4,10.6,19.6c4.1,6.1,8.9,11.9,14.1,17.1
		c5.2,5.2,11,10,17.1,14.1c6.2,4.2,12.8,7.8,19.6,10.6c7,2.9,14.3,5.2,21.7,6.7c7.6,1.6,15.4,2.3,23.3,2.3c9.4,0,18.8-1.1,27.9-3.4
		c8.8-2.2,17.4-5.4,25.4-9.6c7.9-4.1,15.4-9.2,22.1-15c6.7-5.8,12.8-12.4,18.1-19.6l1.4-1.9l-31.8-23L365.7,455.8z"/>
</g>
</svg>
